<?xml version="1.0" encoding="UTF-8"?>
<svg id="_レイヤー_1" data-name=" レイヤー 1" xmlns="http://www.w3.org/2000/svg" version="1.1" viewBox="0 0 401 172">
  <defs>
    <style>
      .cls-1 {
        fill: #040000;
      }

      .cls-1, .cls-2 {
        stroke-width: 0px;
      }

      .cls-2 {
        fill: #077569;
      }
    </style>
  </defs>
  <g>
    <g>
      <path class="cls-2" d="M26,90.38h-4.97c-4.64,0-7.46-.17-8.37-.41s-1.41-.99-1.41-2.24.91-2.74,2.65-4.48c1.74-1.74,2.9-3.48,3.32-5.31.41-1.74.66-6.38.66-13.84s-.17-11.85-.58-13.18-1.57-2.49-3.56-3.48c-1.99-.99-3.07-2.16-3.07-3.48s.91-2.32,2.82-2.98c4.23-1.41,8.87-2.07,13.93-2.07h.75c2.07,0,3.23.83,3.56,2.57.17.99.25,6.88.25,17.66s.25,17.08.75,18.98c.5,1.82,1.74,3.81,3.65,5.89s2.98,3.4,2.98,3.9v.66c0,1.24-4.39,1.91-13.26,1.91l-.08-.08-.02-.02ZM15.97,21.99c0-2.07.83-3.73,2.4-5.14s3.32-2.07,5.22-2.07h1.66c.5.08.99.17,1.33.17,1.66,0,3.15.75,4.48,2.24s1.91,2.98,1.91,4.31v1.33s-.08.58-.08.83c0,1.49-.83,2.9-2.49,4.31s-3.48,2.07-5.47,2.07h-1.66c-1.99,0-3.65-.66-5.06-1.91-1.41-1.24-2.16-2.65-2.16-4.31v-.5l-.08-1.41v.08h0Z"/>
      <path class="cls-1" d="M26.08,90.96h-.2l-.08-.08h-4.77c-4.46,0-7.48-.15-8.5-.43-.66-.18-1.78-.77-1.78-2.72,0-1.37.92-2.95,2.8-4.83,1.77-1.77,2.81-3.42,3.18-5.06.42-1.76.65-6.64.65-13.73,0-4.83-.06-11.43-.56-13.03-.38-1.2-1.49-2.27-3.31-3.18-2.22-1.11-3.34-2.43-3.34-3.93s1.06-2.73,3.15-3.46c4.18-1.39,8.92-2.1,14.09-2.1h.75c2.31,0,3.68,1,4.06,2.98.17,1.04.26,6.85.26,17.75s.25,17,.73,18.86c.47,1.73,1.66,3.64,3.53,5.67,2.62,2.85,3.12,3.69,3.12,4.24v.66c0,1.19-1.64,2.41-13.76,2.41l-.02-.02ZM27.41,39.4c-5.06,0-9.69.69-13.77,2.05-1.67.58-2.48,1.4-2.48,2.51s.94,2.11,2.79,3.03c2.1,1.05,3.35,2.29,3.82,3.78.42,1.33.6,5.45.6,13.33,0,7.27-.23,12.1-.68,13.96-.41,1.82-1.54,3.64-3.45,5.54-1.66,1.66-2.51,3.05-2.51,4.12,0,1.47.78,1.69,1.04,1.76.44.12,2.11.4,8.24.4h5.18l.08.08c12.41-.01,12.56-1.39,12.56-1.41v-.66c-.03-.24-.56-1.06-2.85-3.56-1.98-2.15-3.25-4.2-3.76-6.09-.51-1.97-.76-8.22-.76-19.11s-.08-16.61-.24-17.57c-.28-1.48-1.23-2.15-3.07-2.15h-.75.01ZM24.92,30.53h-1.66c-2.05,0-3.86-.68-5.39-2.03-1.56-1.38-2.32-2.91-2.32-4.69v-.5l-.08-1.41h0c.02-2.13.86-3.9,2.57-5.43,1.63-1.46,3.5-2.2,5.56-2.2h1.66c.53.08,1.03.17,1.33.17,1.8,0,3.43.81,4.85,2.41,1.33,1.5,2.03,3.1,2.03,4.64v1.33c0,.07-.08.6-.08.83,0,1.63-.87,3.17-2.66,4.69-1.71,1.45-3.66,2.19-5.79,2.19h-.02ZM16.47,21.91l.08,1.91c0,1.47.65,2.76,1.99,3.94,1.36,1.2,2.9,1.78,4.73,1.78h1.66c1.92,0,3.6-.64,5.15-1.95,1.55-1.32,2.31-2.61,2.31-3.93,0-.27.09-.9.09-.9v-1.26c0-1.29-.62-2.67-1.78-3.98-1.24-1.39-2.58-2.07-4.1-2.07-.38,0-.9-.09-1.41-.17h-1.58c-1.83,0-3.43.64-4.89,1.95-1.48,1.33-2.22,2.86-2.24,4.69h0Z"/>
    </g>
    <g>
      <path class="cls-2" d="M88.83,40.31c5.89,0,8.87,3.48,8.87,10.44,0,4.72,1.41,10.2,4.31,16.41.75,1.57,1.41,2.4,1.99,2.4,1.16,0,2.57-2.07,4.14-6.3s2.4-8.37,2.4-12.52v-1.66l-.33-1.49v-2.57c0-1.66.75-2.98,2.32-3.81s4.23-1.33,8.04-1.33,5.72,1.08,5.72,3.23c0,1.08-.75,2.4-2.32,4.06s-2.65,3.4-3.4,5.14c-.75,1.82-1.49,3.9-2.24,6.3s-2.49,7.38-5.14,14.75c-2.65,7.46-4.14,11.44-4.48,12.02-1.66,3.23-3.98,4.81-7.13,4.81-1.91,0-3.56-1.33-4.97-4.14-.5-.99-2.32-5.31-5.39-12.77-3.07-7.54-4.64-11.27-4.81-11.27-.41,0-2.24,3.81-5.31,11.36s-4.97,12.02-5.72,13.26c-1.24,2.24-3.07,3.32-5.55,3.32s-4.56-1.74-6.47-5.31c-.66-1.16-2.32-5.64-5.14-13.43-2.82-7.79-4.89-13.1-6.13-16.08-1.33-2.98-2.74-5.47-4.39-7.54s-2.49-3.32-2.49-3.73c0-1.16.5-2.16,1.49-2.98.99-.83,2.57-1.24,4.64-1.24h4.06c5.22,0,8.62,1.33,10.2,3.98.5.75,1.08,3.56,1.82,8.29.75,4.72,1.33,7.79,1.74,9.04,1.66,5.14,3.15,7.71,4.56,7.71,1.16,0,2.32-1.74,3.56-5.14,1.16-3.48,1.74-7.05,1.74-10.86v-1.74l-.17-1.82c0-3.48.91-5.8,2.65-7.13,1.74-1.24,4.14-1.91,7.21-1.91l.08.25h.04Z"/>
      <path class="cls-1" d="M101.6,90.71c-2.13,0-3.95-1.49-5.42-4.42-.52-1.04-2.39-5.47-5.4-12.8-1.03-2.53-3.54-8.71-4.43-10.6-.52.86-1.78,3.37-4.76,10.68-3.31,8.14-5.03,12.12-5.75,13.33-1.33,2.39-3.29,3.56-5.98,3.56s-4.9-1.82-6.91-5.57c-.66-1.16-2.26-5.46-5.17-13.5-3.24-8.96-5.23-13.91-6.12-16.06-1.36-3.05-2.77-5.49-4.32-7.42-2.28-2.85-2.6-3.63-2.6-4.04,0-1.31.56-2.44,1.67-3.37,1.08-.9,2.75-1.36,4.96-1.36h4.06c5.39,0,8.96,1.42,10.63,4.22.51.76,1.06,3.22,1.89,8.47.77,4.85,1.33,7.78,1.72,8.96,2.07,6.41,3.45,7.37,4.08,7.37.5,0,1.56-.62,3.09-4.81,1.15-3.45,1.71-6.95,1.71-10.69v-1.74l-.16-1.78c0-3.65.93-6.11,2.85-7.57,1.87-1.34,4.4-2.01,7.52-2.01h.36l.08.25c5.98.14,9.01,3.82,9.01,10.94,0,4.69,1.43,10.14,4.26,16.2.97,2.06,1.48,2.12,1.54,2.12.34,0,1.61-.43,3.68-5.97,1.6-4.28,2.37-8.32,2.37-12.34v-1.6l-.33-1.55v-2.57c0-1.89.9-3.36,2.59-4.26,1.74-.92,4.53-1.38,8.27-1.38,4.13,0,6.22,1.26,6.22,3.73,0,1.22-.8,2.67-2.46,4.41-1.42,1.5-2.5,3.13-3.3,4.99-.78,1.9-1.51,3.95-2.22,6.25-.72,2.32-2.35,7.01-5.15,14.78-1.8,5.07-4.05,11.29-4.51,12.1-1.74,3.4-4.22,5.06-7.56,5.06h-.01ZM86.43,61.53c.49,0,.56,0,5.27,11.58,2.96,7.2,4.87,11.72,5.37,12.73,1.3,2.6,2.78,3.87,4.53,3.87,2.93,0,5.12-1.48,6.68-4.54.16-.29.91-1.99,4.45-11.96,2.79-7.75,4.42-12.43,5.13-14.74.72-2.33,1.46-4.4,2.25-6.34.84-1.95,2.01-3.73,3.5-5.29,1.45-1.52,2.18-2.78,2.18-3.72,0-.68,0-2.73-5.22-2.73-3.53,0-6.23.44-7.81,1.27-1.36.72-2.05,1.85-2.05,3.37v2.51l.33,1.55v1.66c0,4.14-.8,8.29-2.43,12.69-2.21,5.94-3.69,6.62-4.61,6.62-.81,0-1.56-.83-2.44-2.69-2.89-6.2-4.36-11.79-4.36-16.63,0-6.69-2.74-9.94-8.37-9.94h-.36l-.08-.25c-2.74.05-4.95.66-6.56,1.81-1.64,1.25-2.44,3.45-2.44,6.72l.16,1.78v1.79c0,3.85-.58,7.45-1.77,11.02-1.39,3.79-2.63,5.48-4.04,5.48-1.69,0-3.24-2.48-5.04-8.06-.41-1.22-.98-4.2-1.76-9.11-.28-1.77-1.13-7.17-1.75-8.09-1.48-2.5-4.77-3.76-9.78-3.76h-4.06c-1.97,0-3.42.38-4.32,1.13-.88.74-1.31,1.59-1.31,2.6.02.12.24.75,2.38,3.42,1.6,2,3.06,4.51,4.46,7.65.9,2.17,2.9,7.14,6.15,16.11,2.82,7.81,4.47,12.25,5.1,13.35,1.85,3.45,3.76,5.05,6.03,5.05s3.97-1,5.12-3.06c.7-1.16,2.45-5.23,5.69-13.21,4.74-11.67,5.31-11.67,5.77-11.67v.03Z"/>
    </g>
    <g>
      <path class="cls-2" d="M184.08,85.32v.75c0,1.16-1.33,2.32-3.98,3.32s-5.72,1.57-9.37,1.57c-2.24,0-4.14-.99-5.72-2.98-.91-1.08-1.57-1.66-2.07-1.66s-1.33.41-2.49,1.24c-3.98,2.74-8.29,4.14-12.93,4.14h-.08c-4.56,0-8.21-1.16-10.94-3.56-2.74-2.32-4.14-5.64-4.14-9.86,0-9.12,7.05-14.84,21.05-17.24,3.4-.5,5.39-.91,6.05-1.24,2.07-.83,3.07-2.74,3.07-5.64s-.66-4.97-1.99-6.3c-1.33-1.24-2.82-1.91-4.56-1.91-2.74,0-5.31,1.49-7.54,4.48-2.24,2.98-4.89,4.48-7.87,4.48-1.74,0-3.07-.5-3.98-1.41-.91-.99-1.33-1.99-1.33-2.98,0-3.07,1.57-5.55,4.81-7.38,5.39-2.98,11.02-4.56,17.08-4.56h2.74c2.98,0,5.89.66,8.62,1.91,2.74,1.24,4.89,3.23,6.38,5.89,1.49,2.65,2.24,8.54,2.24,17.66s.33,14.34.91,15.75c.58,1.41,1.74,2.4,3.48,3.07,1.74.66,2.57,1.49,2.57,2.49h0v-.03ZM162.69,68.66c0-1.57-.5-2.4-1.49-2.4h-1.33c-.91.17-1.57.25-1.99.25-3.23,0-5.89.91-8.04,2.82-2.16,1.82-3.23,3.98-3.23,6.3v1.24c0,1.82.58,3.32,1.66,4.64s2.49,1.99,4.06,1.99h1.66c2.32,0,4.31-.75,5.97-2.16s2.49-2.82,2.49-4.23c.17-.66.25-1.16.25-1.33v-.83l.08-2.24v-3.15c0-.33-.08-.58-.08-.83v-.08h-.01Z"/>
      <path class="cls-1" d="M147.52,92.2c-4.78,0-8.57-1.24-11.35-3.69-2.86-2.43-4.31-5.87-4.31-10.24,0-9.32,7.22-15.29,21.47-17.73,4.11-.6,5.48-.98,5.91-1.2,1.89-.76,2.79-2.45,2.79-5.19s-.6-4.71-1.84-5.95c-1.26-1.18-2.64-1.76-4.21-1.76-2.61,0-5.02,1.44-7.14,4.28-2.33,3.1-5.11,4.68-8.27,4.68-1.84,0-3.3-.52-4.33-1.56-.98-1.07-1.47-2.19-1.47-3.34,0-3.29,1.7-5.92,5.06-7.81,5.62-3.11,11.28-4.62,17.32-4.62h2.74c3.01,0,5.98.66,8.83,1.95,2.84,1.29,5.06,3.34,6.61,6.1s2.3,8.61,2.3,17.9c0,11.69.55,14.77.87,15.56.52,1.25,1.56,2.17,3.2,2.79,1.92.73,2.89,1.72,2.89,2.95h0v.75c0,1.44-1.45,2.71-4.3,3.78-2.88,1.08-6.01,1.61-9.54,1.61-2.39,0-4.44-1.07-6.11-3.17-1.08-1.28-1.52-1.47-1.68-1.47-.18,0-.74.11-2.2,1.15-4.09,2.81-8.54,4.24-13.22,4.24h-.02ZM155.98,45.45c1.83,0,3.44.67,4.9,2.04,1.45,1.45,2.15,3.63,2.15,6.67s-1.14,5.2-3.38,6.1c-.69.35-2.72.77-6.16,1.27-13.88,2.38-20.63,7.86-20.63,16.75,0,4.06,1.33,7.25,3.97,9.48,2.64,2.32,6.11,3.45,10.62,3.45s8.82-1.37,12.73-4.06c1.27-.91,2.15-1.33,2.77-1.33s1.34.51,2.45,1.83c1.5,1.89,3.24,2.81,5.34,2.81,3.42,0,6.42-.5,9.19-1.54,2.32-.87,3.65-1.91,3.65-2.85v-.75c0-.77-.76-1.45-2.25-2.02-1.91-.73-3.14-1.82-3.77-3.34-.63-1.53-.95-6.89-.95-15.94s-.73-14.85-2.17-17.41c-1.44-2.57-3.51-4.48-6.15-5.68-2.72-1.24-5.55-1.86-8.41-1.86h-2.74c-5.86,0-11.37,1.47-16.83,4.5-3.02,1.7-4.55,4.04-4.55,6.94,0,.9.39,1.77,1.19,2.65.82.82,2.04,1.25,3.61,1.25,2.83,0,5.35-1.44,7.47-4.28,2.33-3.1,5-4.68,7.94-4.68h.01ZM153.99,84h-1.66c-1.76,0-3.29-.75-4.45-2.17-1.19-1.47-1.77-3.09-1.77-4.96v-1.24c0-2.48,1.18-4.79,3.41-6.68,2.23-1.97,4.97-2.94,8.36-2.94.38,0,1.02-.08,1.9-.24h1.42c.74,0,1.99.37,1.99,2.9v.08c0,.09.02.18.03.28.03.17.05.34.05.55v3.15l-.08,2.26v.81c0,.28-.13.89-.25,1.39-.02,1.53-.92,3.06-2.66,4.54-1.78,1.51-3.89,2.27-6.29,2.27h0ZM159.87,66.76c-.86.17-1.54.25-1.99.25-3.14,0-5.66.88-7.71,2.69-2.04,1.72-3.06,3.72-3.06,5.93v1.24c0,1.65.49,3.03,1.55,4.33.96,1.18,2.23,1.8,3.67,1.8h1.66c2.16,0,4.06-.69,5.64-2.04,1.53-1.3,2.31-2.6,2.31-3.85l.02-.12c.17-.7.23-1.12.23-1.21v-.83l.08-2.26v-3.13c0-.15-.02-.28-.04-.4-.02-.15-.04-.29-.04-.43v-.08c0-1.9-.75-1.9-.99-1.9h-1.33Z"/>
    </g>
    <g>
      <path class="cls-2" d="M236.38,39.65c6.88,0,10.36.99,10.36,2.98,0,1.16-2.24,3.07-6.55,5.72-8.79,5.31-13.18,9.62-13.18,12.93,0,1.16,3.56,5.89,10.69,14.01,2.49,2.82,5.22,5.39,8.21,7.63,2.98,2.24,4.48,3.81,4.48,4.72s-.41,1.57-1.33,1.99c-.83.41-3.98.66-9.45.66h-2.07c-5.22,0-8.7-.83-10.44-2.57-.99-.99-1.74-2.74-2.24-5.31-.5-2.49-1.24-4.64-2.4-6.38-2.57-4.06-4.97-6.05-7.29-6.05-1.41,0-2.16,1.74-2.16,5.14s.75,6.55,2.16,9.28c.66,1.24.91,1.99.91,2.24,0,1.57-1.16,2.57-3.48,3.15-1.16.25-3.98.41-8.46.41s-7.29-.17-8.7-.5c-2.07-.5-3.07-1.41-3.07-2.74,0-.75.66-2.24,1.99-4.48,1.33-2.24,2.16-3.98,2.32-5.14.5-2.98.75-12.43.75-28.35s-.25-24.37-.66-25.53c-.41-1.08-1.66-2.24-3.73-3.32s-3.07-2.32-3.07-3.56.91-2.32,2.82-2.98c3.65-1.33,7.54-1.99,11.85-1.99h1.82c2.24,0,3.65,1.24,4.23,3.81.41,1.82.66,8.7.66,20.72s0,18.32.17,19.15c.33,2.49,1.08,3.65,2.24,3.65,1.57,0,4.31-2.16,8.12-6.38,2.4-2.65,3.56-4.89,3.56-6.71l-.75-3.15c0-1.16.75-1.99,2.16-2.4s4.48-.66,9.12-.66h.41Z"/>
      <path class="cls-1" d="M239.61,90.8h-2.07c-5.44,0-8.97-.89-10.8-2.72-1.08-1.08-1.86-2.9-2.38-5.56-.52-2.6-1.28-4.63-2.33-6.2-2.45-3.87-4.76-5.83-6.88-5.83-1.44,0-1.66,2.91-1.66,4.64,0,3.3.71,6.35,2.1,9.06.29.54.97,1.88.97,2.47,0,1.8-1.26,2.99-3.86,3.64-1.29.28-4.33.43-8.58.43-4.48,0-7.36-.17-8.82-.51-2.29-.55-3.45-1.63-3.45-3.22,0-.54.21-1.62,2.06-4.73,1.37-2.32,2.11-3.94,2.26-4.96.49-2.95.74-12.46.74-28.28,0-21.29-.44-24.83-.63-25.36-.38-.98-1.62-2.07-3.49-3.04-2.76-1.43-3.34-2.97-3.34-4.01,0-.88.41-2.5,3.15-3.46,3.73-1.36,7.66-2.02,12.02-2.02h1.82c2.5,0,4.09,1.41,4.71,4.2.56,2.45.68,12.68.68,20.83,0,11.39,0,18.27.16,19.05.29,2.16.88,3.25,1.75,3.25.98,0,3.12-1.08,7.75-6.22,2.25-2.49,3.41-4.61,3.43-6.32l-.75-3.21c0-1.38.89-2.41,2.51-2.88,1.52-.45,4.72-.68,9.26-.68h.42c7.41,0,10.86,1.11,10.86,3.48,0,.92-.77,2.44-6.79,6.15-8.59,5.19-12.94,9.39-12.94,12.51,0,.38.76,2.5,10.57,13.68,2.52,2.86,5.26,5.4,8.13,7.56,4.14,3.11,4.68,4.37,4.68,5.12,0,1.13-.54,1.96-1.62,2.45-.93.47-4.19.71-9.66.71l.02-.02ZM215.16,69.49c2.52,0,5.04,2.06,7.72,6.28,1.11,1.67,1.92,3.82,2.47,6.55.47,2.43,1.18,4.13,2.1,5.05,1.61,1.61,5,2.42,10.09,2.42h2.07c7.23,0,8.86-.43,9.23-.61.73-.33,1.05-.81,1.05-1.54,0-.34-.42-1.43-4.28-4.32-2.93-2.2-5.71-4.78-8.28-7.7-10.82-12.33-10.82-13.84-10.82-14.34,0-3.54,4.39-7.91,13.42-13.36,5.49-3.38,6.31-4.77,6.31-5.29,0-.93-1.28-2.48-9.86-2.48h-.42c-4.38,0-7.57.23-8.98.64-1.17.34-1.77.97-1.8,1.87l.75,3.21c0,1.97-1.24,4.35-3.69,7.05-3.97,4.41-6.75,6.55-8.49,6.55-2.19,0-2.6-3.07-2.73-4.08-.17-.85-.17-6.6-.17-19.21,0-15.45-.41-19.54-.65-20.61-.53-2.34-1.72-3.42-3.74-3.42h-1.82c-4.24,0-8.06.64-11.68,1.96-1.14.4-2.49,1.15-2.49,2.51,0,1.09.97,2.17,2.8,3.12,2.12,1.1,3.49,2.34,3.97,3.58.46,1.29.7,9.94.7,25.71s-.25,25.4-.75,28.43c-.17,1.16-.92,2.85-2.38,5.31-1.67,2.82-1.92,3.86-1.92,4.22,0,.4,0,1.61,2.68,2.25,1.38.33,4.19.48,8.59.48,5.63,0,7.65-.25,8.35-.4,2.76-.69,3.09-1.85,3.09-2.66,0-.11-.17-.73-.85-2-1.47-2.85-2.21-6.05-2.21-9.52,0-3.74.89-5.64,2.66-5.64h-.04Z"/>
    </g>
    <g>
      <path class="cls-2" d="M272.52,90.38h-4.97c-4.64,0-7.46-.17-8.37-.41s-1.41-.99-1.41-2.24.91-2.74,2.65-4.48c1.74-1.74,2.82-3.48,3.32-5.31.5-1.74.66-6.38.66-13.84s-.17-11.85-.58-13.18-1.57-2.49-3.65-3.48c-1.99-.99-2.98-2.16-2.98-3.48s.91-2.32,2.82-2.98c4.23-1.41,8.87-2.07,13.93-2.07h.83c2.07,0,3.23.83,3.48,2.57.17.99.25,6.88.25,17.66s.25,17.08.75,18.98c.5,1.82,1.66,3.81,3.65,5.89s2.98,3.4,2.98,3.9v.66c0,1.24-4.39,1.91-13.26,1.91l-.08-.08-.02-.02ZM262.57,21.99c0-2.07.83-3.73,2.4-5.14s3.32-2.07,5.14-2.07h1.66c.5.08.99.17,1.33.17,1.66,0,3.15.75,4.48,2.24,1.33,1.49,1.99,2.98,1.99,4.31v1.33s-.08.58-.08.83c0,1.49-.83,2.9-2.49,4.31s-3.48,2.07-5.47,2.07h-1.66c-1.99,0-3.65-.66-5.06-1.91-1.41-1.24-2.16-2.65-2.16-4.31v-.5l-.08-1.41v.08h0Z"/>
      <path class="cls-1" d="M272.61,90.96h-.21l-.08-.08h-4.77c-4.46,0-7.48-.15-8.5-.43-.66-.18-1.78-.77-1.78-2.72,0-1.37.92-2.95,2.8-4.83,1.67-1.67,2.71-3.33,3.19-5.08.45-1.56.65-5.79.65-13.71,0-4.83-.06-11.43-.56-13.03-.38-1.23-1.49-2.27-3.39-3.18-2.17-1.08-3.27-2.41-3.27-3.93s1.06-2.73,3.15-3.46c4.18-1.39,8.92-2.1,14.09-2.1h.83c2.35,0,3.69,1.01,3.98,3,.17,1.02.25,6.82.25,17.73s.25,17,.73,18.86c.5,1.85,1.69,3.75,3.52,5.66,3.12,3.25,3.12,3.95,3.12,4.24v.66c0,1.19-1.63,2.41-13.76,2.41h.01ZM273.93,39.4c-5.06,0-9.69.69-13.77,2.05-1.66.58-2.48,1.4-2.48,2.51s.91,2.14,2.71,3.03c2.15,1.03,3.43,2.27,3.9,3.78.42,1.33.6,5.45.6,13.33s-.2,12.31-.68,13.98c-.52,1.92-1.65,3.73-3.44,5.52-1.66,1.66-2.51,3.05-2.51,4.12,0,1.47.78,1.69,1.04,1.76.44.12,2.11.4,8.24.4h5.18l.08.08c12.41-.01,12.56-1.39,12.56-1.41v-.66c0-.06-.15-.74-2.84-3.55-1.95-2.03-3.22-4.08-3.77-6.1-.51-1.97-.76-8.22-.76-19.11s-.08-16.61-.24-17.57c-.21-1.49-1.13-2.15-2.99-2.15h-.83ZM271.53,30.53h-1.66c-2.05,0-3.86-.68-5.39-2.03-1.56-1.38-2.32-2.91-2.32-4.69v-.5l-.08-1.41c.02-2.12.86-3.9,2.57-5.43,1.63-1.46,3.47-2.2,5.47-2.2h1.66c.53.08,1.03.17,1.33.17,1.8,0,3.43.81,4.85,2.41,1.38,1.56,2.12,3.16,2.12,4.64v1.33c0,.08-.08.6-.08.83,0,1.63-.87,3.17-2.66,4.69-1.71,1.45-3.66,2.19-5.79,2.19h-.02ZM263.08,21.9l.08,1.91c0,1.47.65,2.76,1.99,3.94,1.36,1.2,2.9,1.78,4.72,1.78h1.66c1.92,0,3.6-.64,5.15-1.95,1.55-1.32,2.31-2.61,2.31-3.93,0-.27.09-.9.09-.9v-1.26c0-1.23-.65-2.61-1.87-3.98s-2.58-2.07-4.1-2.07c-.38,0-.9-.09-1.41-.17h-1.58c-1.75,0-3.36.66-4.81,1.95-1.48,1.33-2.21,2.86-2.24,4.68h.01Z"/>
    </g>
    <g>
      <path class="cls-2" d="M338.34,39.65c6.88,0,10.36.99,10.36,2.98,0,1.16-2.16,3.07-6.55,5.72-8.79,5.31-13.18,9.62-13.18,12.93,0,1.16,3.56,5.89,10.69,14.01,2.49,2.82,5.22,5.39,8.21,7.63,2.98,2.24,4.48,3.81,4.48,4.72s-.41,1.57-1.33,1.99c-.83.41-3.98.66-9.45.66h-2.07c-5.22,0-8.79-.83-10.44-2.57-.99-.99-1.74-2.74-2.24-5.31-.5-2.49-1.24-4.64-2.4-6.38-2.57-4.06-4.97-6.05-7.29-6.05-1.41,0-2.16,1.74-2.16,5.14s.75,6.55,2.16,9.28c.66,1.24.99,1.99.99,2.24,0,1.57-1.16,2.57-3.48,3.15-1.16.25-3.98.41-8.46.41s-7.38-.17-8.7-.5c-2.07-.5-3.07-1.41-3.07-2.74,0-.75.66-2.24,1.99-4.48,1.33-2.24,2.16-3.98,2.32-5.14.5-2.98.83-12.43.83-28.35s-.25-24.37-.66-25.53c-.41-1.08-1.66-2.24-3.73-3.32s-3.07-2.32-3.07-3.56.91-2.32,2.82-2.98c3.65-1.33,7.54-1.99,11.85-1.99h1.82c2.24,0,3.65,1.24,4.23,3.81.5,1.82.66,8.7.66,20.72s0,18.32.17,19.15c.33,2.49,1.08,3.65,2.24,3.65,1.57,0,4.31-2.16,8.12-6.38,2.4-2.65,3.56-4.89,3.56-6.71l-.75-3.15c0-1.16.75-1.99,2.16-2.4,1.49-.41,4.48-.66,9.12-.66h.25Z"/>
      <path class="cls-1" d="M341.57,90.8h-2.07c-5.53,0-9.06-.89-10.81-2.72-1.08-1.07-1.85-2.89-2.37-5.55-.52-2.6-1.28-4.63-2.33-6.2-2.45-3.87-4.76-5.83-6.88-5.83-1.44,0-1.66,2.91-1.66,4.64,0,3.3.71,6.35,2.1,9.06.92,1.73,1.05,2.21,1.05,2.47,0,1.8-1.26,2.99-3.86,3.64-1.29.28-4.33.43-8.58.43-4.56,0-7.45-.17-8.82-.51-2.29-.55-3.45-1.63-3.45-3.22,0-.54.21-1.61,2.06-4.73,1.37-2.32,2.11-3.94,2.26-4.96.52-3.14.82-13.45.82-28.28,0-21.29-.44-24.83-.63-25.36-.38-.98-1.62-2.07-3.49-3.04-2.76-1.43-3.34-2.97-3.34-4.01,0-.88.41-2.5,3.16-3.46,3.73-1.36,7.66-2.02,12.02-2.02h1.82c2.5,0,4.09,1.41,4.71,4.2.48,1.75.68,7.79.68,20.83,0,11.39,0,18.27.16,19.05.29,2.16.88,3.25,1.75,3.25.98,0,3.12-1.08,7.75-6.22,2.25-2.49,3.41-4.62,3.44-6.32l-.75-3.21c0-1.38.89-2.41,2.51-2.88,1.63-.45,4.75-.68,9.26-.68h.25c7.41,0,10.86,1.11,10.86,3.48,0,.88-.7,2.47-6.79,6.15-8.59,5.18-12.94,9.39-12.94,12.5,0,.38.76,2.5,10.57,13.68,2.52,2.86,5.26,5.4,8.13,7.56,4.14,3.11,4.68,4.37,4.68,5.12,0,1.13-.54,1.96-1.62,2.45-.93.47-4.19.71-9.66.71v-.02ZM317.12,69.49c2.52,0,5.04,2.06,7.72,6.28,1.12,1.67,1.93,3.82,2.47,6.55.47,2.43,1.18,4.12,2.1,5.05,1.53,1.61,4.93,2.42,10.09,2.42h2.07c7.23,0,8.86-.43,9.23-.61.73-.33,1.05-.81,1.05-1.54,0-.34-.42-1.43-4.28-4.32-2.93-2.2-5.71-4.78-8.28-7.7-10.82-12.33-10.82-13.84-10.82-14.34,0-3.54,4.39-7.91,13.42-13.36,5.69-3.44,6.31-4.85,6.31-5.29,0-.93-1.28-2.48-9.86-2.48h-.25c-5.51,0-7.93.35-8.98.65-1.16.34-1.76.97-1.79,1.87l.75,3.21c0,1.97-1.24,4.34-3.69,7.05-3.97,4.4-6.75,6.55-8.49,6.55-2.19,0-2.6-3.07-2.73-4.08-.17-.85-.17-6.6-.17-19.21s-.19-18.93-.65-20.59c-.53-2.36-1.72-3.44-3.75-3.44h-1.82c-4.24,0-8.06.64-11.68,1.96-1.14.4-2.49,1.15-2.49,2.51,0,1.09.97,2.17,2.8,3.12,2.12,1.1,3.49,2.34,3.97,3.58.46,1.3.7,9.94.7,25.71s-.3,25.2-.84,28.43c-.17,1.16-.92,2.85-2.38,5.31-1.67,2.82-1.92,3.86-1.92,4.22,0,.4,0,1.61,2.68,2.25,1.28.32,4.17.48,8.59.48,5.63,0,7.65-.25,8.35-.4,2.76-.69,3.09-1.85,3.09-2.66,0-.04-.08-.4-.94-2-1.47-2.85-2.21-6.05-2.21-9.52,0-3.74.89-5.64,2.66-5.64l-.03-.02Z"/>
    </g>
    <g>
      <path class="cls-2" d="M374.48,90.38h-4.97c-4.64,0-7.46-.17-8.37-.41s-1.41-.99-1.41-2.24.91-2.74,2.65-4.48c1.74-1.74,2.9-3.48,3.32-5.31.41-1.74.66-6.38.66-13.84s-.17-11.85-.58-13.18-1.57-2.49-3.56-3.48c-1.99-.99-3.07-2.16-3.07-3.48s.91-2.32,2.82-2.98c4.23-1.41,8.87-2.07,13.93-2.07h.75c2.07,0,3.23.83,3.56,2.57.17.99.25,6.88.25,17.66s.25,17.08.75,18.98c.5,1.82,1.66,3.81,3.65,5.89s2.98,3.4,2.98,3.9v.66c0,1.24-4.39,1.91-13.26,1.91l-.08-.08-.02-.02ZM364.53,21.99c0-2.07.83-3.73,2.4-5.14s3.32-2.07,5.22-2.07h1.66c.5.08.99.17,1.33.17,1.66,0,3.15.75,4.48,2.24s1.91,2.98,1.91,4.31v1.33s-.08.58-.08.83c0,1.49-.83,2.9-2.49,4.31s-3.48,2.07-5.47,2.07h-1.66c-1.99,0-3.65-.66-5.06-1.91-1.41-1.24-2.16-2.65-2.16-4.31v-.5l-.08-1.41v.08h0Z"/>
      <path class="cls-1" d="M374.56,90.96h-.2l-.08-.08h-4.77c-4.46,0-7.49-.15-8.5-.43-.66-.18-1.78-.77-1.78-2.72,0-1.37.92-2.95,2.8-4.83,1.77-1.77,2.81-3.42,3.18-5.06.42-1.76.65-6.64.65-13.73,0-4.83-.06-11.43-.56-13.03-.38-1.2-1.49-2.27-3.31-3.18-2.22-1.11-3.34-2.43-3.34-3.93s1.06-2.73,3.15-3.46c4.18-1.39,8.92-2.1,14.09-2.1h.75c2.32,0,3.68,1,4.06,2.98.17,1.04.26,6.84.26,17.75s.25,17,.73,18.86c.5,1.85,1.69,3.75,3.52,5.66,3.12,3.25,3.12,3.95,3.12,4.24v.66c0,1.19-1.63,2.41-13.76,2.41h0ZM375.89,39.4c-5.06,0-9.69.69-13.77,2.05-1.66.58-2.48,1.4-2.48,2.51s.94,2.11,2.79,3.03c2.1,1.05,3.35,2.29,3.82,3.78.42,1.33.6,5.44.6,13.33,0,7.28-.23,12.1-.68,13.96-.42,1.82-1.54,3.64-3.45,5.54-1.66,1.66-2.51,3.05-2.51,4.12,0,1.47.78,1.69,1.04,1.76.44.12,2.11.4,8.24.4h5.18l.08.08c12.41-.01,12.56-1.39,12.56-1.41v-.66c0-.06-.15-.74-2.84-3.55-1.95-2.03-3.22-4.09-3.77-6.1-.51-1.97-.76-8.22-.76-19.11s-.08-16.61-.24-17.57c-.28-1.48-1.23-2.15-3.07-2.15h-.75.01ZM373.48,30.53h-1.66c-2.08,0-3.84-.66-5.39-2.03-1.56-1.38-2.32-2.91-2.32-4.69v-.5l-.08-1.41c.02-2.12.86-3.9,2.57-5.43,1.63-1.46,3.5-2.2,5.55-2.2h1.66c.53.08,1.03.17,1.33.17,1.8,0,3.43.81,4.85,2.41,1.33,1.5,2.03,3.1,2.03,4.64v1.33c0,.08-.08.6-.08.83,0,1.63-.87,3.17-2.66,4.69-1.71,1.45-3.66,2.19-5.79,2.19h0ZM365.03,21.9l.08,1.91c0,1.47.65,2.76,1.99,3.94,1.36,1.2,2.9,1.78,4.72,1.78h1.66c1.92,0,3.6-.64,5.15-1.95,1.55-1.32,2.31-2.61,2.31-3.93,0-.27.09-.9.09-.9v-1.26c0-1.29-.62-2.67-1.79-3.98-1.24-1.39-2.58-2.07-4.1-2.07-.38,0-.9-.09-1.41-.17h-1.58c-1.83,0-3.43.64-4.89,1.95-1.48,1.33-2.21,2.86-2.24,4.68h.01Z"/>
    </g>
  </g>
  <g>
    <g>
      <path class="cls-2" d="M166.5,134.39c0-2.82.58-5.72,1.66-8.62s2.65-5.39,4.56-7.46c1.99-2.07,4.31-3.65,6.96-4.72,2.65-.99,5.31-1.57,7.96-1.57s4.97.25,6.96.75,3.65.75,4.81.83,1.91.25,2.24.41c.99.66,1.57,2.74,1.57,6.13,0,2.4-.66,3.65-1.91,3.65-.5,0-1.33-.91-2.49-2.65s-2.32-2.98-3.32-3.56c-2.32-1.33-4.72-2.07-7.38-2.07-4.72,0-8.46,1.99-11.11,5.89-2.16,3.23-3.23,7.38-3.23,12.43,0,6.38,1.16,11.27,3.56,14.67,2.74,3.81,6.63,5.8,11.85,5.8,2.74,0,5.06-.58,6.96-1.74.99-.58,2.07-1.57,3.4-2.98s2.32-2.16,3.07-2.16,1.08.5,1.08,1.49-.33,2.16-1.08,3.56c-.75,1.41-1.57,2.4-2.4,2.98-.83.58-2.49,1.08-4.97,1.74-2.49.58-4.56.91-6.3.91h-2.24c-2.74,0-5.47-.58-8.12-1.74-5.31-2.24-8.87-6.22-10.69-11.85-.91-2.82-1.41-5.8-1.41-8.87v-1.24h.01Z"/>
      <path class="cls-1" d="M188.97,158.6h-2.24c-2.82,0-5.62-.6-8.32-1.78-5.4-2.28-9.1-6.37-10.97-12.16-.95-2.94-1.43-5.98-1.43-9.02v-1.24c0-2.82.57-5.78,1.69-8.79,1.06-2.85,2.62-5.41,4.66-7.63,2.04-2.12,4.44-3.75,7.14-4.85,2.9-1.09,5.56-1.61,8.15-1.61s5.06.26,7.08.76c2.32.58,3.96.76,4.72.82,1.12.08,1.98.25,2.42.47,1.25.83,1.85,3.03,1.85,6.58s-1.31,4.15-2.41,4.15c-.51,0-1.22-.35-2.9-2.88-1.11-1.66-2.23-2.87-3.15-3.41-2.36-1.35-4.69-2-7.13-2-4.54,0-8.13,1.91-10.69,5.67-2.09,3.13-3.15,7.22-3.15,12.15,0,6.29,1.17,11.12,3.47,14.38,2.7,3.76,6.44,5.59,11.45,5.59,2.63,0,4.89-.56,6.7-1.67.88-.51,1.86-1.38,3.29-2.9,1.53-1.62,2.55-2.31,3.43-2.31.59,0,1.58.26,1.58,1.99,0,1.11-.37,2.36-1.14,3.8-.76,1.44-1.62,2.51-2.56,3.16-.87.61-2.41,1.09-5.13,1.81-2.72.63-4.75.93-6.43.93h.02ZM167,134.39v1.25c0,2.94.47,5.88,1.39,8.72,1.78,5.5,5.28,9.38,10.41,11.55,2.58,1.13,5.25,1.7,7.93,1.7h2.24c1.6,0,3.56-.29,6.19-.9,2.48-.66,4.06-1.15,4.8-1.66.79-.55,1.57-1.53,2.25-2.81.69-1.29,1.02-2.38,1.02-3.33s-.33-.99-.58-.99c-.55,0-1.46.67-2.7,2-1.5,1.59-2.55,2.51-3.51,3.07-1.97,1.2-4.4,1.81-7.22,1.81-5.27,0-9.4-2.02-12.26-6.01-2.46-3.48-3.66-8.38-3.66-14.96,0-5.13,1.12-9.41,3.32-12.71,2.76-4.05,6.64-6.11,11.52-6.11,2.61,0,5.11.7,7.63,2.14,1.08.63,2.28,1.91,3.48,3.72,1.49,2.24,1.99,2.42,2.08,2.43,1.15,0,1.4-1.71,1.4-3.15,0-4.35-.95-5.45-1.35-5.72-.19-.09-.86-.25-2-.33-1.38-.1-3.12-.4-4.89-.84-1.94-.49-4.24-.73-6.84-.73s-5.01.5-7.78,1.54c-2.56,1.04-4.85,2.59-6.78,4.6-1.94,2.11-3.44,4.56-4.45,7.29-1.08,2.91-1.63,5.75-1.63,8.44h0Z"/>
    </g>
    <g>
      <path class="cls-2" d="M239.61,141.03v1.66c0,1.99-.41,3.98-1.24,6.05-1.57,4.06-4.31,6.8-8.21,8.29-1.91.75-3.65,1.08-5.39,1.08h-1.08c-4.06,0-7.46-1.41-10.2-4.14-1.24-1.24-2.24-2.9-2.98-5.06-.75-2.07-1.08-4.06-1.08-5.89v-1.57c0-2.07.41-4.06,1.24-6.13s1.82-3.73,3.07-5.06c1.24-1.33,2.82-2.4,4.81-3.15,1.91-.75,3.81-1.16,5.55-1.16h1.57c3.73,0,6.96,1.41,9.78,4.14,1.16,1.16,2.16,2.82,2.98,4.81s1.16,4.06,1.16,6.13h.02ZM224.53,128.76h-.66c-2.32,0-4.31,1.24-5.89,3.73-1.24,1.99-1.91,4.89-1.91,8.87v.83c0,5.97,1.66,9.95,4.81,12.1,1.16.75,2.4,1.08,3.81,1.08h.33c2.32,0,4.14-1.16,5.55-3.32,1.41-2.16,2.07-4.97,2.07-8.45v-1.99c0-3.73-.75-6.8-2.32-9.2-1.57-2.4-3.48-3.56-5.89-3.56l.08-.08h.02Z"/>
      <path class="cls-1" d="M224.78,158.6h-1.08c-4.15,0-7.7-1.44-10.55-4.29-1.32-1.32-2.34-3.04-3.1-5.25-.73-2.03-1.1-4.07-1.1-6.05v-1.58c0-2.1.42-4.17,1.28-6.32.86-2.16,1.9-3.86,3.17-5.21,1.34-1.44,3.03-2.54,5-3.28,1.99-.78,3.98-1.19,5.73-1.19h1.58c3.79,0,7.2,1.44,10.13,4.29,1.17,1.17,2.21,2.84,3.1,4.97.8,1.91,1.2,4.04,1.2,6.33v1.66c0,2.04-.42,4.08-1.28,6.24-1.61,4.14-4.46,7.03-8.49,8.57-1.91.75-3.73,1.11-5.57,1.11h-.02ZM224.11,126.44c-1.63,0-3.49.39-5.37,1.13-1.83.69-3.38,1.7-4.62,3.03-1.18,1.26-2.15,2.86-2.97,4.9-.81,2.03-1.21,3.98-1.21,5.95v1.58c0,1.86.35,3.79,1.05,5.72.71,2.07,1.65,3.66,2.87,4.87,2.65,2.65,5.96,4,9.84,4h1.08c1.71,0,3.41-.34,5.21-1.04,3.81-1.46,6.4-4.08,7.92-8,.81-2.04,1.21-3.96,1.21-5.87v-1.66c0-2.16-.38-4.15-1.12-5.94-.84-2.01-1.8-3.58-2.88-4.65-2.77-2.69-5.86-4-9.43-4h-1.58v-.02ZM225.02,155.87h-.33c-1.54,0-2.87-.38-4.08-1.16-3.35-2.29-5.04-6.5-5.04-12.52v-.83c0-4.01.65-7,1.98-9.13,1.67-2.63,3.79-3.96,6.31-3.96h1.88l-.17.17c2.05.32,3.75,1.54,5.17,3.71,1.62,2.47,2.4,5.57,2.4,9.48v1.99c0,3.66-.7,6.51-2.15,8.73-1.54,2.35-3.55,3.54-5.97,3.54v-.02ZM223.28,129.29c-1.9.2-3.54,1.36-4.88,3.47-1.21,1.94-1.83,4.83-1.83,8.6v.83c0,5.67,1.54,9.61,4.59,11.69,1.05.67,2.17.99,3.53.99h.33c2.1,0,3.78-1.01,5.14-3.09,1.34-2.05,1.99-4.73,1.99-8.18v-1.99c0-3.71-.73-6.63-2.24-8.93-1.49-2.28-3.23-3.34-5.47-3.34h-1.22l.05-.05h.01Z"/>
    </g>
    <g>
      <path class="cls-2" d="M250.72,158.27h-.25c-1.24,0-2.24-.41-2.98-1.33-.75-.91-1.08-1.82-1.08-2.9v-.17c0-.75.33-1.66,1.08-2.57.66-.91,1.66-1.41,2.9-1.41h.83c.83,0,1.66.33,2.49,1.08s1.24,1.66,1.24,2.74v.66c0,1.16-.41,2.07-1.33,2.82s-1.82,1.08-2.82,1.08h-.08,0Z"/>
      <path class="cls-1" d="M250.8,158.77h-.33c-1.42,0-2.55-.51-3.37-1.51-.81-.99-1.19-2.01-1.19-3.22v-.17c0-.92.42-1.95,1.19-2.89.75-1.03,1.89-1.59,3.29-1.59h.83c.98,0,1.93.41,2.82,1.21.93.84,1.41,1.89,1.41,3.11v.66c0,1.33-.49,2.37-1.51,3.21-.98.8-2,1.19-3.13,1.19h-.01ZM250.39,150.4c-1.08,0-1.92.41-2.5,1.2-.64.78-.98,1.58-.98,2.28v.17c0,.97.3,1.77.96,2.58.63.77,1.48,1.14,2.6,1.14h.33c.9,0,1.7-.31,2.5-.96.78-.64,1.14-1.41,1.14-2.43v-.66c0-.94-.35-1.71-1.08-2.36-.71-.64-1.41-.95-2.15-.95h-.83,0Z"/>
    </g>
    <g>
      <path class="cls-2" d="M271.53,154.95v.75c0,2.49-.75,4.72-2.24,6.71-2.24,2.98-4.14,4.56-5.55,4.56h-.17c-.66,0-.99-.33-.99-.99,0-.17.66-.99,1.91-2.4,1.33-1.41,1.91-2.74,1.91-3.98,0-.5-.58-1.33-1.82-2.57-1.24-1.24-1.82-2.4-1.82-3.4s.41-1.91,1.16-2.65c.83-.75,1.66-1.08,2.74-1.08h.75c1.24,0,2.24.5,3.07,1.41.75.91,1.16,2.16,1.16,3.73l-.08-.08h-.03Z"/>
      <path class="cls-1" d="M263.74,167.47h-.17c-.94,0-1.5-.56-1.5-1.5,0-.24,0-.43,2.03-2.73,1.19-1.26,1.78-2.48,1.78-3.65,0-.13-.12-.66-1.68-2.22-1.29-1.29-1.97-2.59-1.97-3.75s.45-2.15,1.31-3.01c.95-.85,1.89-1.22,3.09-1.22h.75c1.33,0,2.49.53,3.44,1.57.86,1.05,1.29,2.41,1.29,4.07v1.2l-.09-.09c-.08,2.41-.87,4.62-2.33,6.57-2.37,3.16-4.37,4.76-5.95,4.76ZM263.08,166.06c.02.32.13.41.49.41h.17c.7,0,2.31-.57,5.15-4.36,1.42-1.89,2.14-4.05,2.14-6.42v-1.8c-.14-.91-.46-1.67-.96-2.28-.75-.82-1.63-1.23-2.68-1.23h-.75c-.94,0-1.66.28-2.4.95-.65.64-1,1.44-1,2.28,0,.89.58,1.95,1.68,3.04,1.38,1.38,1.97,2.25,1.97,2.92,0,1.43-.69,2.88-2.04,4.32-1.33,1.51-1.68,2-1.77,2.15v.02Z"/>
    </g>
    <g>
      <path class="cls-2" d="M280.89,115.16c-1.24-.41-1.82-.99-1.82-1.74s.91-1.08,2.65-1.08h5.8c3.9,0,6.3.08,7.13.25s1.16.58,1.16,1.24c0,.41-.66.99-1.91,1.57-1.33.66-2.07,1.49-2.32,2.65-.5,2.32-.75,8.37-.75,18.24s.17,15.09.58,15.75c.58.99,2.74,1.49,6.55,1.49s6.3-.33,7.54-.91c1.24-.58,2.49-1.82,3.73-3.73s2.07-2.9,2.57-2.9c.83,0,1.16.66,1.16,1.99,0,4.64-.58,7.54-1.82,8.54-.75.66-4.31.91-10.78.91h-5.72c-10.36,0-15.58-.41-15.58-1.33,0-.58.58-1.16,1.74-1.82s1.91-1.66,2.32-2.98c.41-1.33.58-5.55.58-12.77l.17-13.59c0-4.72-.17-7.46-.5-8.12-.33-.75-1.08-1.24-2.32-1.66h-.17.01Z"/>
      <path class="cls-1" d="M300.37,157.94h-5.72c-16.08,0-16.08-1.01-16.08-1.83,0-.99,1.07-1.73,1.99-2.26,1.02-.58,1.71-1.47,2.09-2.7.5-1.6.56-7.97.56-12.62l.17-13.6c0-6.09-.28-7.56-.44-7.89-.26-.58-.86-1.01-1.96-1.38h-.17l-.08-.02c-1.44-.48-2.17-1.22-2.17-2.21,0-1.58,2.37-1.58,3.15-1.58h5.8c3.99,0,6.36.08,7.23.26,1.29.26,1.56,1.08,1.56,1.73s-.74,1.35-2.19,2.03c-1.2.6-1.83,1.31-2.04,2.3-.49,2.27-.74,8.37-.74,18.13s.17,14.85.51,15.49c.28.47,1.43,1.25,6.12,1.25s6.49-.47,7.33-.86c1.15-.54,2.34-1.73,3.52-3.55,1.51-2.31,2.29-3.13,2.99-3.13,1.1,0,1.66.84,1.66,2.49,0,4.92-.66,7.84-2.01,8.93-.68.61-2.84,1.02-11.09,1.02h.01ZM279.58,156.02c.53.37,3.27.92,15.07.92h5.72c6.34,0,9.86-.26,10.44-.79.77-.61,1.66-2.51,1.66-8.16,0-1.49-.43-1.49-.66-1.49-.13.03-.64.35-2.15,2.67-1.29,1.98-2.61,3.29-3.94,3.91-1.36.64-3.97.96-7.75.96-4.07,0-6.29-.55-6.98-1.74-.31-.49-.65-2.19-.65-16,0-9.97.25-15.97.76-18.34.28-1.3,1.1-2.25,2.59-3,1.25-.59,1.61-1.03,1.63-1.14,0-.3-.06-.6-.76-.74-.54-.11-2.21-.24-7.03-.24h-5.8c-1.35,0-2.15.22-2.15.58,0,.19,0,.75,1.4,1.24h.17l.08.02c1.43.48,2.24,1.07,2.62,1.93.23.45.54,1.83.54,8.33l-.17,13.6c0,7.59-.19,11.57-.6,12.91-.46,1.49-1.3,2.55-2.55,3.27-1.08.62-1.41,1.04-1.48,1.29h-.01Z"/>
    </g>
    <g>
      <path class="cls-2" d="M316.45,128.59c0-.5.58-1.08,1.66-1.66s1.82-1.16,2.07-1.57c.33-.41.83-1.74,1.66-3.98.83-2.24,1.66-3.32,2.49-3.32s1.49.33,1.74.99c.17.33.33,1.24.5,2.65s.58,2.49,1.08,3.07,1.74,1.08,3.73,1.57c1.99.41,2.98,1.08,2.98,1.82s-1.08,1.33-3.23,1.66-3.4.83-3.73,1.49c-.66,1.16-.99,4.56-.99,10.03s.33,8.95.91,10.36,1.49,2.07,2.74,2.07c.66,0,1.66-.17,2.82-.58,1.16-.41,1.91-.58,2.16-.58.75,0,1.08.41,1.08,1.24,0,.99-1.16,2.07-3.4,3.07-1.33.58-2.74.91-4.14.91s-2.82-.33-3.98-.99-2.07-1.57-2.74-2.82c-.91-1.74-1.41-5.47-1.41-11.11v-5.31c0-2.74-.25-4.64-.66-5.64s-.91-1.66-1.41-2.07c-1.16-.75-1.74-1.24-1.74-1.49l-.17.17-.02.02Z"/>
      <path class="cls-1" d="M328.56,158.35c-1.53,0-3.03-.38-4.23-1.06-1.28-.73-2.23-1.72-2.93-3.02-.97-1.86-1.47-5.68-1.47-11.34v-5.31c0-2.54-.22-4.48-.62-5.44-.35-.84-.78-1.47-1.27-1.88-.74-.47-1.2-.82-1.49-1.1l-.6.59v-1.2c0-.71.65-1.41,1.92-2.1,1.14-.61,1.73-1.13,1.88-1.39.33-.42.93-2.03,1.62-3.9.92-2.48,1.86-3.64,2.96-3.64s1.89.48,2.21,1.32c.11.21.29.77.53,2.77.14,1.22.5,2.27.96,2.8.4.46,1.56.94,3.47,1.42,2.78.58,3.36,1.58,3.36,2.31,0,1.07-1.2,1.77-3.66,2.15-2.69.41-3.24.99-3.36,1.22-.44.77-.94,3.06-.94,9.81s.55,9.38.87,10.17c.5,1.2,1.22,1.76,2.27,1.76.7,0,1.67-.2,2.65-.55,1.05-.38,1.94-.61,2.32-.61.59,0,1.58.23,1.58,1.74,0,1.23-1.28,2.45-3.7,3.52-1.45.63-2.91.95-4.35.95h.02ZM317.12,128.35c.07.1.37.42,1.51,1.15.67.55,1.19,1.31,1.6,2.3.46,1.1.7,3.12.7,5.83v5.31c0,6.85.74,9.7,1.35,10.88.6,1.12,1.43,1.98,2.54,2.62,1.05.6,2.37.93,3.73.93s2.63-.29,3.94-.87c1.94-.86,3.1-1.84,3.1-2.61,0-.69-.24-.74-.58-.74-.12,0-.73.1-1.99.55-1.08.39-2.17.61-2.99.61-1.47,0-2.55-.8-3.2-2.38-.63-1.53-.95-5.08-.95-10.55s.35-9.03,1.06-10.28c.4-.81,1.71-1.37,4.09-1.74,2.22-.34,2.81-.89,2.81-1.16,0-.4-.8-.96-2.59-1.33-2.22-.56-3.45-1.09-4.01-1.74-.6-.7-1.02-1.88-1.19-3.33-.22-1.88-.39-2.37-.45-2.49-.24-.63-.91-.72-1.29-.72-.27,0-1.02.29-2.02,2.99-.91,2.45-1.36,3.64-1.74,4.12-.38.64-1.56,1.34-2.23,1.7-.67.36-1.04.67-1.23.89v.08l.03-.02Z"/>
    </g>
    <g>
      <path class="cls-2" d="M362.71,120.97c0-2.98-.17-4.89-.58-5.55-.33-.66-.99-1.24-1.99-1.74-.99-.41-1.49-.91-1.49-1.49,0-.33.17-.58.41-.75,1.08-.83,3.15-1.24,6.22-1.24h.75c1.49,0,2.4.83,2.65,2.4v18.9c0,12.52.08,19.15.25,20.14.17.91.66,1.66,1.33,2.24,1.49,1.08,2.24,1.66,2.24,1.74,0,.58-.25.91-.75,1.24-1.16.66-2.57.99-4.23.99s-2.74-.17-3.15-.5-.83-.83-1.24-1.41c-.41-.58-.66-.91-.75-.91-.25,0-.91.25-1.82.83-.99.58-2.07,1.08-3.23,1.57s-2.65.75-4.48.75h-.83c-1.41,0-2.82-.41-4.39-1.16-2.9-1.41-4.89-3.73-5.97-7.05-.75-2.07-1.08-4.39-1.08-6.71,0-5.06,1.41-9.04,4.14-12.1,2.74-2.98,6.55-4.56,11.36-4.56h.75l1.49.25c1.16.17,1.82.17,2.07.17,1.16,0,1.82-.33,2.07-1.08.08-.33.17-1.99.17-5.06l.08.08h0ZM354.42,154.62h.99c.99,0,2.07-.33,3.23-.91,1.16-.58,2.07-1.41,2.74-2.32s.99-3.56.99-7.79v-6.71c0-2.65-.33-4.39-1.08-5.22-1.41-1.57-3.23-2.4-5.64-2.4h-.66c-2.32,0-4.23.99-5.89,3.07-1.66,1.99-2.49,4.72-2.49,8.04v2.74c0,3.23.75,5.97,2.16,8.21s3.32,3.32,5.64,3.32h0v-.03Z"/>
      <path class="cls-1" d="M352.84,158.68h-.83c-1.4,0-2.87-.38-4.61-1.21-3.03-1.47-5.12-3.94-6.23-7.34-.72-2-1.1-4.38-1.1-6.87,0-5.14,1.4-9.21,4.27-12.44,2.88-3.14,6.82-4.73,11.73-4.73h.75l1.57.25c1.11.16,1.75.16,1.99.16,1.19,0,1.48-.37,1.6-.74.03-.13.14-1.34.14-4.9v-1.22l.07.07c-.05-2.75-.29-3.74-.49-4.06-.3-.6-.9-1.11-1.79-1.56-1.16-.48-1.77-1.14-1.77-1.94,0-.47.23-.89.64-1.16,1.15-.89,3.29-1.33,6.5-1.33h.75c1.74,0,2.86,1,3.15,2.83v18.98c0,12.35.09,19.1.25,20.06.13.73.52,1.39,1.16,1.94,2.41,1.74,2.41,1.8,2.41,2.12,0,.89-.49,1.34-.97,1.66-1.26.72-2.77,1.08-4.5,1.08-2.42,0-3.14-.35-3.46-.61-.41-.33-.84-.81-1.34-1.51-.11-.15-.34-.48-.49-.67-.23.07-.7.27-1.4.71-1.11.65-2.29,1.18-3.3,1.61-1.22.52-2.79.79-4.67.79l-.03.03ZM356.74,127.1h-.66c-4.62,0-8.31,1.49-10.99,4.4-2.7,3.03-4.01,6.88-4.01,11.76,0,2.38.36,4.64,1.05,6.54,1.04,3.19,2.91,5.4,5.72,6.76,1.6.76,2.92,1.11,4.17,1.11h.83c1.75,0,3.19-.24,4.28-.71.98-.42,2.13-.94,3.18-1.55.88-.56,1.66-.9,2.08-.9.34,0,.52.23,1.15,1.12.44.61.81,1.04,1.15,1.31.11.09.65.39,2.84.39,1.56,0,2.9-.31,3.98-.93.31-.2.44-.37.48-.63-.19-.17-.7-.56-2.02-1.52-.84-.73-1.35-1.6-1.53-2.55-.17-1.04-.26-7.66-.26-20.23v-18.9c-.21-1.26-.91-1.9-2.15-1.9h-.75c-2.94,0-4.93.38-5.91,1.14-.2.13-.22.26-.22.35,0,.44.64.81,1.18,1.03,1.12.56,1.87,1.22,2.24,1.98.44.7.63,2.44.63,5.78v1.22l-.09-.09c-.02,2.13-.08,3.58-.18,3.96-.49,1.46-2.04,1.46-2.56,1.46-.26,0-.95,0-2.14-.17l-1.5-.25v.02ZM355.41,155.12h-1c-2.54,0-4.58-1.2-6.06-3.55-1.48-2.35-2.23-5.2-2.23-8.47v-2.74c0-3.47.88-6.29,2.6-8.36,1.75-2.18,3.8-3.25,6.27-3.25h.66c2.5,0,4.46.84,6.01,2.57.82.91,1.21,2.68,1.21,5.55v6.71c0,4.43-.36,7.08-1.09,8.08-.76,1.05-1.77,1.9-2.92,2.47-1.3.65-2.43.96-3.46.96v.03ZM355,129.76c-2.18,0-3.92.92-5.5,2.88-1.58,1.9-2.38,4.49-2.38,7.73v2.74c0,3.08.7,5.75,2.08,7.94,1.29,2.04,3.04,3.08,5.21,3.08h1c.87,0,1.85-.28,3.01-.86,1-.5,1.89-1.25,2.55-2.17.34-.46.9-2.05.9-7.5v-6.71c0-2.54-.32-4.19-.95-4.89-1.35-1.51-3.07-2.24-5.27-2.24h-.66.01Z"/>
    </g>
    <g>
      <path class="cls-2" d="M384.01,158.27h-.25c-1.24,0-2.24-.41-2.98-1.33-.75-.91-1.08-1.82-1.08-2.9v-.17c0-.75.33-1.66,1.08-2.57.66-.91,1.66-1.41,2.9-1.41h.83c.83,0,1.66.33,2.49,1.08s1.24,1.66,1.24,2.74v.66c0,1.16-.41,2.07-1.33,2.82s-1.82,1.08-2.82,1.08h-.08,0Z"/>
      <path class="cls-1" d="M384.09,158.77h-.33c-1.42,0-2.55-.51-3.37-1.51-.81-.99-1.19-2.01-1.19-3.22v-.17c0-.92.42-1.95,1.19-2.89.75-1.03,1.89-1.59,3.29-1.59h.83c.98,0,1.93.41,2.82,1.21.94.84,1.41,1.89,1.41,3.11v.66c0,1.33-.49,2.37-1.51,3.21-.98.8-2,1.19-3.13,1.19h-.01ZM383.68,150.4c-1.06,0-1.92.42-2.5,1.2-.64.78-.98,1.58-.98,2.28v.17c0,.97.3,1.77.96,2.58.63.77,1.48,1.14,2.6,1.14h.33c.9,0,1.7-.31,2.5-.96.78-.64,1.14-1.41,1.14-2.43v-.66c0-.94-.35-1.71-1.08-2.36-.71-.64-1.41-.95-2.15-.95h-.83,0Z"/>
    </g>
  </g>
</svg>